<?xml version="1.0" encoding="UTF-8" standalone="no"?>
<svg
   xmlns:dc="http://purl.org/dc/elements/1.1/"
   xmlns:cc="http://creativecommons.org/ns#"
   xmlns:rdf="http://www.w3.org/1999/02/22-rdf-syntax-ns#"
   xmlns:svg="http://www.w3.org/2000/svg"
   xmlns="http://www.w3.org/2000/svg"
   id="svg8"
   version="1.1"
   viewBox="0 0 6.3499999 6.3499999"
   height="6.3499999mm"
   width="6.3499999mm">
  <defs
     id="defs2" />
  <metadata
     id="metadata5">
    <rdf:RDF>
      <cc:Work
         rdf:about="">
        <dc:format>image/svg+xml</dc:format>
        <dc:type
           rdf:resource="http://purl.org/dc/dcmitype/StillImage" />
        <dc:title></dc:title>
      </cc:Work>
    </rdf:RDF>
  </metadata>
  <g
     transform="translate(-27.063095,-92.741667)"
     id="layer1">
    <g
       id="g908">
      <path
         style="fill:none;stroke-width:0.26458332"
         d="m 27.063095,92.741667 h 6.35 v 6.35 h -6.35 z"
         id="path865" />
      <path
         d="m 30.238095,93.270834 c -1.4605,0 -2.645833,1.185333 -2.645833,2.645833 0,1.4605 1.185333,2.645833 2.645833,2.645833 1.4605,0 2.645833,-1.185333 2.645833,-2.645833 0,-1.4605 -1.185333,-2.645833 -2.645833,-2.645833 z m -0.717021,3.780895 -0.949854,-0.949854 c -0.103188,-0.103187 -0.103188,-0.269875 0,-0.373062 0.103187,-0.103188 0.269875,-0.103188 0.373062,0 l 0.764646,0.762 1.820334,-1.820334 c 0.103187,-0.103187 0.269875,-0.103187 0.373062,0 0.103188,0.103188 0.103188,0.269875 0,0.373063 l -2.008187,2.008187 c -0.100542,0.103188 -0.269875,0.103188 -0.373063,0 z"
         id="path867"
         style="fill:#fccf2d;fill-opacity:1;stroke-width:0.26458332" />
    </g>
  </g>
</svg>
