<?xml version="1.0" encoding="UTF-8" standalone="no"?>
<!-- Created with Inkscape (http://www.inkscape.org/) -->

<svg
   xmlns:dc="http://purl.org/dc/elements/1.1/"
   xmlns:cc="http://creativecommons.org/ns#"
   xmlns:rdf="http://www.w3.org/1999/02/22-rdf-syntax-ns#"
   xmlns:svg="http://www.w3.org/2000/svg"
   xmlns="http://www.w3.org/2000/svg"
   xmlns:sodipodi="http://sodipodi.sourceforge.net/DTD/sodipodi-0.dtd"
   xmlns:inkscape="http://www.inkscape.org/namespaces/inkscape"
   width="6.3499999mm"
   height="6.3499999mm"
   viewBox="0 0 6.3499999 6.3499999"
   version="1.1"
   id="svg8"
   inkscape:version="0.92.5 (2060ec1f9f, 2020-04-08)"
   sodipodi:docname="check_circle-aqua-24px.svg">
  <defs
     id="defs2" />
  <sodipodi:namedview
     id="base"
     pagecolor="#ffffff"
     bordercolor="#666666"
     borderopacity="1.0"
     inkscape:pageopacity="0.0"
     inkscape:pageshadow="2"
     inkscape:zoom="15.839192"
     inkscape:cx="17.003963"
     inkscape:cy="16.730717"
     inkscape:document-units="mm"
     inkscape:current-layer="layer1"
     showgrid="false"
     fit-margin-top="0"
     fit-margin-left="0"
     fit-margin-right="0"
     fit-margin-bottom="0"
     inkscape:window-width="3408"
     inkscape:window-height="1344"
     inkscape:window-x="16"
     inkscape:window-y="43"
     inkscape:window-maximized="0" />
  <metadata
     id="metadata5">
    <rdf:RDF>
      <cc:Work
         rdf:about="">
        <dc:format>image/svg+xml</dc:format>
        <dc:type
           rdf:resource="http://purl.org/dc/dcmitype/StillImage" />
        <dc:title></dc:title>
      </cc:Work>
    </rdf:RDF>
  </metadata>
  <g
     inkscape:label="Layer 1"
     inkscape:groupmode="layer"
     id="layer1"
     transform="translate(-27.063095,-92.741667)">
    <g
       id="g952">
      <path
         id="path865"
         d="m 27.063095,92.741667 h 6.35 v 6.35 h -6.35 z"
         inkscape:connector-curvature="0"
         style="fill:none;stroke-width:0.26458332" />
      <path
         style="fill:#0ceaea;fill-opacity:1;stroke-width:0.26458332"
         id="path867"
         d="m 30.238095,93.270834 c -1.4605,0 -2.645833,1.185333 -2.645833,2.645833 0,1.4605 1.185333,2.645833 2.645833,2.645833 1.4605,0 2.645833,-1.185333 2.645833,-2.645833 0,-1.4605 -1.185333,-2.645833 -2.645833,-2.645833 z m -0.717021,3.780895 -0.949854,-0.949854 c -0.103188,-0.103187 -0.103188,-0.269875 0,-0.373062 0.103187,-0.103188 0.269875,-0.103188 0.373062,0 l 0.764646,0.762 1.820334,-1.820334 c 0.103187,-0.103187 0.269875,-0.103187 0.373062,0 0.103188,0.103188 0.103188,0.269875 0,0.373063 l -2.008187,2.008187 c -0.100542,0.103188 -0.269875,0.103188 -0.373063,0 z"
         inkscape:connector-curvature="0" />
    </g>
  </g>
</svg>
