<?xml version="1.0" encoding="UTF-8" standalone="no"?>
<svg
   xmlns:dc="http://purl.org/dc/elements/1.1/"
   xmlns:cc="http://creativecommons.org/ns#"
   xmlns:rdf="http://www.w3.org/1999/02/22-rdf-syntax-ns#"
   xmlns:svg="http://www.w3.org/2000/svg"
   xmlns="http://www.w3.org/2000/svg"
   xmlns:sodipodi="http://sodipodi.sourceforge.net/DTD/sodipodi-0.dtd"
   xmlns:inkscape="http://www.inkscape.org/namespaces/inkscape"
   height="24"
   viewBox="0 0 24 24"
   width="24"
   version="1.1"
   id="svg896"
   sodipodi:docname="email-24px.svg"
   inkscape:version="0.92.5 (2060ec1f9f, 2020-04-08)">
  <metadata
     id="metadata902">
    <rdf:RDF>
      <cc:Work
         rdf:about="">
        <dc:format>image/svg+xml</dc:format>
        <dc:type
           rdf:resource="http://purl.org/dc/dcmitype/StillImage" />
      </cc:Work>
    </rdf:RDF>
  </metadata>
  <defs
     id="defs900" />
  <sodipodi:namedview
     pagecolor="#ffffff"
     bordercolor="#666666"
     borderopacity="1"
     objecttolerance="10"
     gridtolerance="10"
     guidetolerance="10"
     inkscape:pageopacity="0"
     inkscape:pageshadow="2"
     inkscape:window-width="3408"
     inkscape:window-height="1344"
     id="namedview898"
     showgrid="false"
     inkscape:zoom="24.166667"
     inkscape:cx="10.934942"
     inkscape:cy="11.383372"
     inkscape:window-x="16"
     inkscape:window-y="43"
     inkscape:window-maximized="0"
     inkscape:current-layer="svg896" />
  <path
     d="M0 0h24v24H0V0z"
     fill="none"
     id="path892" />
  <path
     d="M20 4H4c-1.1 0-1.99.9-1.99 2L2 18c0 1.1.9 2 2 2h16c1.1 0 2-.9 2-2V6c0-1.1-.9-2-2-2zm-.4 4.25l-7.07 4.42c-.32.2-.74.2-1.06 0L4.4 8.25c-.25-.16-.4-.43-.4-.72 0-.67.73-1.07 1.3-.72L12 11l6.7-4.19c.57-.35 1.3.05 1.3.72 0 .29-.15.56-.4.72z"
     id="path894"
     style="fill:#ffffff" />
</svg>
