<?xml version="1.0" encoding="UTF-8" standalone="no"?>
<svg
   xmlns:dc="http://purl.org/dc/elements/1.1/"
   xmlns:cc="http://creativecommons.org/ns#"
   xmlns:rdf="http://www.w3.org/1999/02/22-rdf-syntax-ns#"
   xmlns:svg="http://www.w3.org/2000/svg"
   xmlns="http://www.w3.org/2000/svg"
   xmlns:sodipodi="http://sodipodi.sourceforge.net/DTD/sodipodi-0.dtd"
   xmlns:inkscape="http://www.inkscape.org/namespaces/inkscape"
   aria-hidden="true"
   focusable="false"
   data-prefix="fab"
   data-icon="instagram"
   class="svg-inline--fa fa-instagram fa-w-14"
   role="img"
   viewBox="0 0 32 32"
   version="1.1"
   id="svg871"
   sodipodi:docname="instagram-brands (2).svg"
   width="32"
   height="32"
   inkscape:version="0.92.5 (2060ec1f9f, 2020-04-08)">
  <metadata
     id="metadata877">
    <rdf:RDF>
      <cc:Work
         rdf:about="">
        <dc:format>image/svg+xml</dc:format>
        <dc:type
           rdf:resource="http://purl.org/dc/dcmitype/StillImage" />
        <dc:title></dc:title>
      </cc:Work>
    </rdf:RDF>
  </metadata>
  <defs
     id="defs875" />
  <sodipodi:namedview
     pagecolor="#ffffff"
     bordercolor="#666666"
     borderopacity="1"
     objecttolerance="10"
     gridtolerance="10"
     guidetolerance="10"
     inkscape:pageopacity="0"
     inkscape:pageshadow="2"
     inkscape:window-width="3408"
     inkscape:window-height="1344"
     id="namedview873"
     showgrid="false"
     fit-margin-top="0"
     fit-margin-left="0"
     fit-margin-right="0"
     fit-margin-bottom="0"
     inkscape:zoom="12.81631"
     inkscape:cx="16.458435"
     inkscape:cy="3.7033286"
     inkscape:window-x="16"
     inkscape:window-y="43"
     inkscape:window-maximized="0"
     inkscape:current-layer="svg871" />
  <g
     id="g883"
     transform="translate(-660.30341,-330.81378)">
    <circle
       r="16"
       cy="346.81378"
       cx="676.30341"
       id="path879"
       style="opacity:1;vector-effect:none;fill:#ea2c59;fill-opacity:1;stroke:none;stroke-width:4.41960859;stroke-linecap:butt;stroke-linejoin:miter;stroke-miterlimit:4;stroke-dasharray:none;stroke-dashoffset:0;stroke-opacity:1" />
    <path
       style="fill:#ffffff;stroke-width:0.04757427"
       inkscape:connector-curvature="0"
       id="path869"
       d="m 676.30579,341.3475 c -3.02573,0 -5.46629,2.44056 -5.46629,5.46628 0,3.02573 2.44056,5.46629 5.46629,5.46629 3.02571,0 5.46628,-2.44056 5.46628,-5.46629 0,-3.02572 -2.44057,-5.46628 -5.46628,-5.46628 z m 0,9.02009 c -1.95531,0 -3.5538,-1.59375 -3.5538,-3.55381 0,-1.96005 1.59373,-3.5538 3.5538,-3.5538 1.96005,0 3.55379,1.59375 3.55379,3.5538 0,1.96006 -1.5985,3.55381 -3.55379,3.55381 z m 6.96487,-9.24369 c 0,0.70886 -0.57089,1.27499 -1.27499,1.27499 -0.70886,0 -1.27499,-0.57089 -1.27499,-1.27499 0,-0.7041 0.57088,-1.27499 1.27499,-1.27499 0.7041,0 1.27499,0.57089 1.27499,1.27499 z m 3.6204,1.29402 c -0.0809,-1.70792 -0.47099,-3.22077 -1.72219,-4.46722 -1.24644,-1.24645 -2.75931,-1.63656 -4.46722,-1.72219 -1.76026,-0.0999 -7.03624,-0.0999 -8.79649,0 -1.70315,0.0809 -3.21602,0.47098 -4.46722,1.71743 -1.25121,1.24644 -1.63656,2.75931 -1.72219,4.46722 -0.0999,1.76026 -0.0999,7.03624 0,8.79649 0.0809,1.70792 0.47098,3.22077 1.72219,4.46722 1.2512,1.24645 2.7593,1.63656 4.46722,1.72219 1.76025,0.0999 7.03623,0.0999 8.79649,0 1.70791,-0.0809 3.22078,-0.47098 4.46722,-1.72219 1.24645,-1.24645 1.63655,-2.7593 1.72219,-4.46722 0.0999,-1.76025 0.0999,-7.03148 0,-8.79173 z m -2.27405,10.68042 c -0.37108,0.93246 -1.08946,1.65083 -2.02667,2.02667 -1.40344,0.55662 -4.73363,0.42817 -6.28455,0.42817 -1.55093,0 -4.88589,0.12369 -6.28457,-0.42817 -0.93246,-0.37108 -1.65082,-1.08945 -2.02666,-2.02667 -0.55662,-1.40343 -0.42817,-4.73363 -0.42817,-6.28456 0,-1.55092 -0.1237,-4.88587 0.42817,-6.28456 0.37108,-0.93245 1.08945,-1.65082 2.02666,-2.02666 1.40344,-0.55662 4.73364,-0.42817 6.28457,-0.42817 1.55092,0 4.88587,-0.12369 6.28455,0.42817 0.93246,0.37108 1.65083,1.08945 2.02667,2.02666 0.55661,1.40344 0.42816,4.73364 0.42816,6.28456 0,1.55093 0.12845,4.88588 -0.42816,6.28456 z" />
  </g>
</svg>
